<svg xmlns="http://www.w3.org/2000/svg" xmlns:xlink="http://www.w3.org/1999/xlink" version="1.0" x="0" y="0" width="2400" height="604.3378422674913" viewBox="21.85127227783203 87.69505279541016 296.2974554443359 74.60990203857422" preserveAspectRatio="xMidYMid meet" color-interpolation-filters="sRGB"><g><defs><linearGradient id="92" x1="0%" y1="0%" x2="100%" y2="0%"><stop offset="0%" stop-color="#fa71cd"></stop> <stop offset="100%" stop-color="#9b59b6"></stop></linearGradient><linearGradient id="93" x1="0%" y1="0%" x2="100%" y2="0%"><stop offset="0%" stop-color="#f9d423"></stop> <stop offset="100%" stop-color="#f83600"></stop></linearGradient><linearGradient id="94" x1="0%" y1="0%" x2="100%" y2="0%"><stop offset="0%" stop-color="#0064d2"></stop> <stop offset="100%" stop-color="#1cb0f6"></stop></linearGradient><linearGradient id="95" x1="0%" y1="0%" x2="100%" y2="0%"><stop offset="0%" stop-color="#f00978"></stop> <stop offset="100%" stop-color="#3f51b1"></stop></linearGradient><linearGradient id="96" x1="0%" y1="0%" x2="100%" y2="0%"><stop offset="0%" stop-color="#7873f5"></stop> <stop offset="100%" stop-color="#ec77ab"></stop></linearGradient><linearGradient id="97" x1="0%" y1="0%" x2="100%" y2="0%"><stop offset="0%" stop-color="#f9d423"></stop> <stop offset="100%" stop-color="#e14fad"></stop></linearGradient><linearGradient id="98" x1="0%" y1="0%" x2="100%" y2="0%"><stop offset="0%" stop-color="#009efd"></stop> <stop offset="100%" stop-color="#2af598"></stop></linearGradient><linearGradient id="99" x1="0%" y1="0%" x2="100%" y2="0%"><stop offset="0%" stop-color="#ffcc00"></stop> <stop offset="100%" stop-color="#00b140"></stop></linearGradient><linearGradient id="100" x1="0%" y1="0%" x2="100%" y2="0%"><stop offset="0%" stop-color="#d51007"></stop> <stop offset="100%" stop-color="#ff8177"></stop></linearGradient><linearGradient id="102" x1="0%" y1="0%" x2="100%" y2="0%"><stop offset="0%" stop-color="#a2b6df"></stop> <stop offset="100%" stop-color="#0c3483"></stop></linearGradient><linearGradient id="103" x1="0%" y1="0%" x2="100%" y2="0%"><stop offset="0%" stop-color="#7ac5d8"></stop> <stop offset="100%" stop-color="#eea2a2"></stop></linearGradient><linearGradient id="104" x1="0%" y1="0%" x2="100%" y2="0%"><stop offset="0%" stop-color="#00ecbc"></stop> <stop offset="100%" stop-color="#007adf"></stop></linearGradient><linearGradient id="105" x1="0%" y1="0%" x2="100%" y2="0%"><stop offset="0%" stop-color="#b88746"></stop> <stop offset="100%" stop-color="#fdf5a6"></stop></linearGradient></defs><g fill="#343c3e" class="iconblsvg-g iconsvg" transform="translate(24.756149291992188,90.59992599487305)"><g class="tp-name"><g transform="translate(0, 22.57075807148615)"><g transform="scale(1.2742858886718762)"><path d="M15.52-8.84L15.52-8.84 17.01-8.73Q20.22-8.73 22.46-10.98L22.46-10.98Q24.7-13.22 24.7-16.55L24.7-16.55Q24.7-20.93 20.86-23.04L20.86-23.04Q18.74-24.21 16.34-24.39L16.34-24.39Q15.31-24.48 14.44-24.48L14.44-24.48 13.2-24.48Q12.82-24.48 12.53-24.47L12.53-24.47 12.53 0 3.23 0 3.23-25.8Q7.49-25.8 10.14-25.8 12.78-25.8 13.58-25.78 14.38-25.76 15.01-25.73 15.64-25.71 16.19-25.67L16.19-25.67Q16.99-25.6 18.46-25.32 19.93-25.05 21.37-24.28 22.81-23.52 23.85-22.39L23.85-22.39Q26.09-19.98 26.09-16.66L26.09-16.66Q26.09-13.38 24.01-10.87L24.01-10.87Q21.88-8.3 18.32-7.55L18.32-7.55Q20.02-2.3 22.64-1.28L22.64-1.28Q23.45-0.97 24.25-0.97L24.25-0.97 25.69-1.31Q26.36-1.31 26.36-0.62L26.36-0.62Q26.36 0.35 24.1 0.35L24.1 0.35Q22.46 0.35 21.09-0.57L21.09-0.57Q18.96-1.84 17.47-5.52L17.47-5.52 16.94-6.82Q16.81-7.13 16.71-7.2 16.61-7.27 16.36-7.27 16.12-7.27 15.93-7.24L15.93-7.24 15.5-7.22Q14.77-7.22 14.5-7.49 14.24-7.77 14.24-8.06L14.24-8.06Q14.24-8.84 15.52-8.84ZM42.72 0L42.72-1.2Q40.38 0.35 37.54 0.35L37.54 0.35Q33.76 0.35 31.49-1.55L31.49-1.55Q29.12-3.5 29.12-6.96L29.12-6.96Q29.12-10.03 31.47-12L31.47-12Q33.87-13.98 37.79-13.98L37.79-13.98Q40.42-13.98 42.72-12.98L42.72-12.98 42.72-17.99Q41.06-18.47 39.79-18.47 38.52-18.47 37.65-18.36 36.77-18.25 35.99-18.03L35.99-18.03Q34.29-17.56 33.42-16.75L33.42-16.75Q32.91-16.28 32.49-16.28 32.07-16.28 31.85-16.49 31.63-16.7 31.63-16.96 31.63-17.21 31.72-17.42 31.81-17.63 32.07-17.85L32.07-17.85Q32.62-18.32 33.89-18.8L33.89-18.8Q36.54-19.8 39.2-19.8L39.2-19.8Q47.29-19.8 49.54-15.93L49.54-15.93Q50.52-14.22 50.52-11.43L50.52-11.43 50.52 0 42.72 0ZM42.72-2.77L42.72-11.56Q40.42-12.67 38.14-12.67L38.14-12.67Q37.78-12.67 37.45-12.62L37.45-12.62 37.45-1.02Q37.54-1 37.65-1 37.76-1 37.87-1L37.87-1Q40.36-1 42.72-2.77L42.72-2.77ZM70.03 0L70.03-1Q67.75 0.35 65.21 0.35 62.66 0.35 60.74-0.41 58.81-1.17 57.45-2.52L57.45-2.52Q54.6-5.34 54.6-9.86L54.6-9.86Q54.6-14.06 57.41-16.85L57.41-16.85Q60.4-19.8 65.21-19.8L65.21-19.8Q67.77-19.8 70.03-18.69L70.03-18.69 70.03-25.8 77.54-25.8 77.54 0 70.03 0ZM64.85-18.47L64.85-18.47Q64.28-18.47 63.77-18.4L63.77-18.4 63.77-1.11Q64.43-1 65.2-1L65.2-1Q67.73-1 70.03-2.61L70.03-2.61 70.03-17.06Q67.57-18.47 64.85-18.47ZM87.33-22.66Q85.45-22.66 84.39-23.5 83.34-24.34 83.34-25.71L83.34-25.71Q83.34-26.86 84.5-27.68L84.5-27.68Q85.74-28.55 87.13-28.55 88.51-28.55 89.27-28.28 90.03-28 90.56-27.57L90.56-27.57Q91.61-26.67 91.61-25.49L91.61-25.49Q91.61-24.3 90.41-23.48L90.41-23.48Q89.21-22.66 87.33-22.66ZM83.5 0L83.5-19.47 91.34-19.47 91.34 0 83.5 0ZM95.31 0.35Q95.04 0.35 94.82 0.14 94.6-0.07 94.6-0.36L94.6-0.36Q94.6-0.95 95.26-1.44L95.26-1.44Q95.92-1.93 96.21-2.33L96.21-2.33Q96.21-2.33 101.04-8.26L101.04-8.26 94.33-19.47 102.63-19.47 106.49-13.04Q109.86-17.37 110.12-17.78L110.12-17.78Q110.61-18.54 110.77-18.96L110.77-18.96Q111.12-19.8 111.74-19.8L111.74-19.8Q112.03-19.8 112.26-19.61 112.49-19.42 112.49-19.14 112.49-18.87 112.39-18.6 112.29-18.32 112.05-17.9L112.05-17.9Q111.58-17.1 110.39-15.59L110.39-15.59 107.31-11.67 114.33 0 106 0 101.84-6.93 97.39-1.33Q96.24 0.11 95.75 0.29L95.75 0.29Q95.57 0.35 95.31 0.35Z" transform="translate(-3.2300000190734863, 28.549999237060547)"></path></g></g> <g transform="translate(144.5731658935547, 0)"><g><g class="imagesvg"><g><rect fill="#343c3e" fill-opacity="0" stroke-width="2" x="0" y="0" width="36.702813807839576" height="68.80014585232455" class="image-rect"></rect> <svg filter="url(#colors3947698615)" x="0" y="0" width="36.702813807839576" height="68.80014585232455" filtersec="colorsf8416317452" class="image-svg-svg primary" style="overflow: visible;"><svg xmlns="http://www.w3.org/2000/svg" xmlns:xlink="http://www.w3.org/1999/xlink" version="1.1" x="0px" y="0px" viewBox="32.650001525878906 17.47599983215332 34.70100402832031 65.04800415039062" enable-background="new 0 0 100 100" xml:space="preserve"><g><g><path d="M64.85,82.524H50.925c-1.381,0-2.5-1.119-2.5-2.5s1.119-2.5,2.5-2.5H62.35V44.657L55.467,34.61    c-0.285-0.416-0.438-0.909-0.438-1.413V22.476H44.972v10.721c0,0.504-0.152,0.997-0.438,1.413L37.65,44.657v35.367    c0,1.381-1.119,2.5-2.5,2.5s-2.5-1.119-2.5-2.5V43.882c0-0.504,0.152-0.997,0.438-1.413l6.884-10.046V19.976    c0-1.381,1.119-2.5,2.5-2.5h15.058c1.381,0,2.5,1.119,2.5,2.5v12.447l6.883,10.046c0.285,0.416,0.438,0.909,0.438,1.413v36.142    C67.35,81.405,66.23,82.524,64.85,82.524z"></path></g></g></svg></svg> <defs><filter id="colors3947698615"><feColorMatrix type="matrix" values="0 0 0 0 0.71875  0 0 0 0 0.5234375  0 0 0 0 0.04296875  0 0 0 1 0" class="icon-feColorMatrix "></feColorMatrix></filter> <filter id="colorsf8416317452"><feColorMatrix type="matrix" values="0 0 0 0 0.99609375  0 0 0 0 0.99609375  0 0 0 0 0.99609375  0 0 0 1 0" class="icon-fecolormatrix"></feColorMatrix></filter> <filter id="colorsb2785890051"><feColorMatrix type="matrix" values="0 0 0 0 0  0 0 0 0 0  0 0 0 0 0  0 0 0 1 0" class="icon-fecolormatrix"></feColorMatrix></filter></defs></g></g></g></g> <g fill="#343c3e" transform="translate(184.2759780883789, 22.57075807148615)"><g transform="scale(1.2742858886718762)"><path d="M21.62-26L21.62-26Q22.37-26 22.37-25.21L22.37-25.21Q22.37-24.81 22.12-24.29 21.88-23.77 21.73-23.45L21.73-23.45 11.83 1-0.16-25.8 9.79-25.8 15.59-12.16 19.65-22.33Q20.31-23.97 20.51-24.7 20.71-25.43 20.95-25.72 21.19-26 21.62-26ZM29.95-22.66Q28.08-22.66 27.02-23.5 25.96-24.34 25.96-25.71L25.96-25.71Q25.96-26.86 27.13-27.68L27.13-27.68Q28.37-28.55 29.75-28.55 31.14-28.55 31.9-28.28 32.65-28 33.18-27.57L33.18-27.57Q34.24-26.67 34.24-25.49L34.24-25.49Q34.24-24.3 33.04-23.48L33.04-23.48Q31.83-22.66 29.95-22.66ZM26.13 0L26.13-19.47 33.97-19.47 33.97 0 26.13 0ZM47.42 0.35L47.42 0.35Q40.27 0.35 40.27-6.18L40.27-6.18 40.26-18.14 38.16-18.05Q37.17-18.05 37.17-18.8 37.17-19.54 38.23-19.54L38.23-19.54 39.98-19.47 40.26-19.47 40.26-22.3 48.08-25.8 48.08-19.47 50.52-19.47 52.25-19.54Q53.33-19.54 53.33-18.78L53.33-18.78Q53.33-18.43 53.03-18.24 52.73-18.05 52.34-18.05L52.34-18.05 50.08-18.14 48.08-18.14 48.08-1Q50.21-1.04 51.63-2.22L51.63-2.22Q52.31-2.73 52.59-3.54 52.87-4.34 53.1-4.57 53.33-4.79 53.64-4.79L53.64-4.79Q53.95-4.79 54.17-4.55 54.38-4.3 54.38-3.97 54.38-3.63 54.2-3.22 54.02-2.81 53.66-2.35L53.66-2.35Q52.84-1.33 51.76-0.73L51.76-0.73Q49.81 0.35 47.42 0.35ZM57.48 0L57.48-19.47 65.32-19.47 65.32-13.75Q66.58-16.86 68.03-18.33 69.48-19.8 70.94-19.8L70.94-19.8Q71.76-19.8 72.24-19.37 72.73-18.94 72.73-18.41 72.73-17.89 72.58-17.58 72.43-17.27 72.2-17.05L72.2-17.05Q71.7-16.59 71.27-16.59L71.27-16.59Q70.57-16.59 70.25-16.74L70.25-16.74Q69.68-16.99 69.24-16.99 68.81-16.99 68.13-16.29 67.46-15.59 66.84-14.35L66.84-14.35Q65.32-11.32 65.32-7.78L65.32-7.78 65.32 0 57.48 0ZM78.91-22.66Q77.03-22.66 75.97-23.5 74.91-24.34 74.91-25.71L74.91-25.71Q74.91-26.86 76.08-27.68L76.08-27.68Q77.32-28.55 78.71-28.55 80.09-28.55 80.85-28.28 81.6-28 82.13-27.57L82.13-27.57Q83.19-26.67 83.19-25.49L83.19-25.49Q83.19-24.3 81.99-23.48L81.99-23.48Q80.78-22.66 78.91-22.66ZM75.08 0L75.08-19.47 82.92-19.47 82.92 0 75.08 0Z" transform="translate(0.1599999964237213, 28.549999237060547)"></path></g></g></g> </g><defs v-gra="od"></defs></g></svg>