<svg xmlns="http://www.w3.org/2000/svg" xmlns:xlink="http://www.w3.org/1999/xlink" version="1.0" x="0" y="0" width="2400" height="1036.298368287982" viewBox="33.56650207519531 66.08924530029297 272.8669958496094 117.82150939941407" preserveAspectRatio="xMidYMid meet" color-interpolation-filters="sRGB"><g><defs><linearGradient id="92" x1="0%" y1="0%" x2="100%" y2="0%"><stop offset="0%" stop-color="#fa71cd"></stop> <stop offset="100%" stop-color="#9b59b6"></stop></linearGradient><linearGradient id="93" x1="0%" y1="0%" x2="100%" y2="0%"><stop offset="0%" stop-color="#f9d423"></stop> <stop offset="100%" stop-color="#f83600"></stop></linearGradient><linearGradient id="94" x1="0%" y1="0%" x2="100%" y2="0%"><stop offset="0%" stop-color="#0064d2"></stop> <stop offset="100%" stop-color="#1cb0f6"></stop></linearGradient><linearGradient id="95" x1="0%" y1="0%" x2="100%" y2="0%"><stop offset="0%" stop-color="#f00978"></stop> <stop offset="100%" stop-color="#3f51b1"></stop></linearGradient><linearGradient id="96" x1="0%" y1="0%" x2="100%" y2="0%"><stop offset="0%" stop-color="#7873f5"></stop> <stop offset="100%" stop-color="#ec77ab"></stop></linearGradient><linearGradient id="97" x1="0%" y1="0%" x2="100%" y2="0%"><stop offset="0%" stop-color="#f9d423"></stop> <stop offset="100%" stop-color="#e14fad"></stop></linearGradient><linearGradient id="98" x1="0%" y1="0%" x2="100%" y2="0%"><stop offset="0%" stop-color="#009efd"></stop> <stop offset="100%" stop-color="#2af598"></stop></linearGradient><linearGradient id="99" x1="0%" y1="0%" x2="100%" y2="0%"><stop offset="0%" stop-color="#ffcc00"></stop> <stop offset="100%" stop-color="#00b140"></stop></linearGradient><linearGradient id="100" x1="0%" y1="0%" x2="100%" y2="0%"><stop offset="0%" stop-color="#d51007"></stop> <stop offset="100%" stop-color="#ff8177"></stop></linearGradient><linearGradient id="102" x1="0%" y1="0%" x2="100%" y2="0%"><stop offset="0%" stop-color="#a2b6df"></stop> <stop offset="100%" stop-color="#0c3483"></stop></linearGradient><linearGradient id="103" x1="0%" y1="0%" x2="100%" y2="0%"><stop offset="0%" stop-color="#7ac5d8"></stop> <stop offset="100%" stop-color="#eea2a2"></stop></linearGradient><linearGradient id="104" x1="0%" y1="0%" x2="100%" y2="0%"><stop offset="0%" stop-color="#00ecbc"></stop> <stop offset="100%" stop-color="#007adf"></stop></linearGradient><linearGradient id="105" x1="0%" y1="0%" x2="100%" y2="0%"><stop offset="0%" stop-color="#b88746"></stop> <stop offset="100%" stop-color="#fdf5a6"></stop></linearGradient></defs><g fill="#343c3e" class="icon-text-wrapper icon-svg-group iconsvg" transform="translate(36.241668701171875,68.76441192626953)"><g class="iconsvg-imagesvg" transform="translate(0,0)"><g><rect fill="#343c3e" fill-opacity="0" stroke-width="2" x="0" y="0" width="60" height="112.47117926031454" class="image-rect"></rect> <svg filter="url(#colors4102523105)" x="0" y="0" width="60" height="112.47117926031454" filtersec="colorsf3373059017" class="image-svg-svg primary" style="overflow: visible;"><svg xmlns="http://www.w3.org/2000/svg" xmlns:xlink="http://www.w3.org/1999/xlink" version="1.1" x="0px" y="0px" viewBox="32.650001525878906 17.47599983215332 34.70100402832031 65.04800415039062" enable-background="new 0 0 100 100" xml:space="preserve"><g><g><path d="M64.85,82.524H50.925c-1.381,0-2.5-1.119-2.5-2.5s1.119-2.5,2.5-2.5H62.35V44.657L55.467,34.61    c-0.285-0.416-0.438-0.909-0.438-1.413V22.476H44.972v10.721c0,0.504-0.152,0.997-0.438,1.413L37.65,44.657v35.367    c0,1.381-1.119,2.5-2.5,2.5s-2.5-1.119-2.5-2.5V43.882c0-0.504,0.152-0.997,0.438-1.413l6.884-10.046V19.976    c0-1.381,1.119-2.5,2.5-2.5h15.058c1.381,0,2.5,1.119,2.5,2.5v12.447l6.883,10.046c0.285,0.416,0.438,0.909,0.438,1.413v36.142    C67.35,81.405,66.23,82.524,64.85,82.524z"></path></g></g></svg></svg> <defs><filter id="colors4102523105"><feColorMatrix type="matrix" values="0 0 0 0 0.71875  0 0 0 0 0.5234375  0 0 0 0 0.04296875  0 0 0 1 0" class="icon-feColorMatrix "></feColorMatrix></filter> <filter id="colorsf3373059017"><feColorMatrix type="matrix" values="0 0 0 0 0.99609375  0 0 0 0 0.99609375  0 0 0 0 0.99609375  0 0 0 1 0" class="icon-fecolormatrix"></feColorMatrix></filter> <filter id="colorsb3138350765"><feColorMatrix type="matrix" values="0 0 0 0 0  0 0 0 0 0  0 0 0 0 0  0 0 0 1 0" class="icon-fecolormatrix"></feColorMatrix></filter></defs></g></g> <g transform="translate(76,5.376903533935547)"><g fill-rule="" class="tp-name iconsvg-namesvg"><g transform="scale(1.6542858886718765)"><g><path d="M15.52-8.84L15.52-8.84 17.01-8.73Q20.22-8.73 22.46-10.98L22.46-10.98Q24.7-13.22 24.7-16.55L24.7-16.55Q24.7-20.93 20.86-23.04L20.86-23.04Q18.74-24.21 16.34-24.39L16.34-24.39Q15.31-24.48 14.44-24.48L14.44-24.48 13.2-24.48Q12.82-24.48 12.53-24.47L12.53-24.47 12.53 0 3.23 0 3.23-25.8Q7.49-25.8 10.14-25.8 12.78-25.8 13.58-25.78 14.38-25.76 15.01-25.73 15.64-25.71 16.19-25.67L16.19-25.67Q16.99-25.6 18.46-25.32 19.93-25.05 21.37-24.28 22.81-23.52 23.85-22.39L23.85-22.39Q26.09-19.98 26.09-16.66L26.09-16.66Q26.09-13.38 24.01-10.87L24.01-10.87Q21.88-8.3 18.32-7.55L18.32-7.55Q20.02-2.3 22.64-1.28L22.64-1.28Q23.45-0.97 24.25-0.97L24.25-0.97 25.69-1.31Q26.36-1.31 26.36-0.62L26.36-0.62Q26.36 0.35 24.1 0.35L24.1 0.35Q22.46 0.35 21.09-0.57L21.09-0.57Q18.96-1.84 17.47-5.52L17.47-5.52 16.94-6.82Q16.81-7.13 16.71-7.2 16.61-7.27 16.36-7.27 16.12-7.27 15.93-7.24L15.93-7.24 15.5-7.22Q14.77-7.22 14.5-7.49 14.24-7.77 14.24-8.06L14.24-8.06Q14.24-8.84 15.52-8.84ZM40.26-3.25L35.15-3.25Q31.81-3.25 30.59-3.3L30.59-3.3 30.06-2.04Q29.83-1.51 29.63-0.93L29.63-0.93Q29.21 0.2 28.46 0.2L28.46 0.2Q28.11 0.2 27.89-0.02 27.68-0.24 27.68-0.47L27.68-0.47Q27.68-0.88 28.02-1.37L28.02-1.37Q28.57-2.13 29.1-3.37L29.1-3.37Q27.53-3.52 27.53-4.28 27.53-5.05 28.42-5.05L28.42-5.05Q28.97-5.05 29.7-4.87L29.7-4.87 38.8-26.96 51.27 0 41.77 0 40.26-3.25ZM35.1-14.4L31.18-4.72Q32.93-4.58 34.31-4.58L34.31-4.58 39.65-4.58 35.1-14.4ZM55.3 0L55.3-25.8 62.88-25.8Q68.19-25.8 70.67-25.05L70.67-25.05Q73.49-24.18 75.03-22.81 76.57-21.44 77.45-19.98L77.45-19.98Q79.23-17.01 79.23-13.24L79.23-13.24Q79.23-7.29 74.97-3.61L74.97-3.61Q71.94-0.97 67.84-0.35L67.84-0.35Q65.56 0 61.46 0L61.46 0 55.3 0ZM64.59-24.41L64.59-1.51Q64.89-1.49 65.12-1.49L65.12-1.49 65.54-1.49Q70.48-1.49 73.98-4.58L73.98-4.58Q77.68-7.82 77.68-13.2L77.68-13.2Q77.68-16.59 76.06-19.31L76.06-19.31Q73.71-23.26 68.62-24.1L68.62-24.1Q66.96-24.38 64.59-24.41L64.59-24.41ZM83.76 0L83.76-25.8 93.05-25.8 93.05 0 83.76 0ZM98.03 0.2L98.03 0.2Q97.28 0.2 97.28-0.51L97.28-0.51Q97.28-1.06 98.09-1.75L98.09-1.75Q98.81-2.42 99.27-3.06L99.27-3.06Q99.27-3.06 104.32-10.43L104.32-10.43 96.92-25.8 106.58-25.8 110.96-16.68 114.77-22.15Q115.82-23.72 116.34-25.09L116.34-25.09Q116.74-26 117.43-26 118.12-26 118.12-25.21L118.12-25.21Q118.12-24.78 117.17-23.35L117.17-23.35 111.7-15.13 119 0 109.37 0 105.09-8.86 100.42-2.15Q99.03-0.22 98.47 0.09L98.47 0.09Q98.25 0.2 98.03 0.2Z" transform="translate(-3.2300000190734863, 26.959999084472656)"></path></g> <g fill="#343c3e" transform="translate(0,30.310001373291016)"><g transform="scale(0.99101)"><path d="M25.15-30.24L25.15-30.24Q26.02-30.24 26.02-29.33L26.02-29.33Q26.02-28.87 25.74-28.26 25.45-27.66 25.28-27.27L25.28-27.27 13.76 1.17-0.19-30.01 11.39-30.01 18.13-14.15 22.86-25.98Q23.63-27.89 23.86-28.74 24.09-29.59 24.37-29.92 24.64-30.24 25.15-30.24ZM30.12 0L30.12-30.01 40.93-30.01 40.93 0 30.12 0ZM69.84-29.46L69.84-29.46Q69.84-28.48 67.78-28.48L67.78-28.48 62.86-28.48 62.86 0 52 0 52-28.48 48.82-28.48Q47.19-28.48 46.57-28.34L46.57-28.34Q45.77-28.17 45.41-28.17L45.41-28.17Q44.33-28.17 44.33-29.01L44.33-29.01Q44.33-30.01 46.43-30.01L46.43-30.01 65.34-30.01Q66.81-30.01 67.51-30.14L67.51-30.14Q68.36-30.29 68.78-30.29L68.78-30.29Q69.84-30.29 69.84-29.46ZM88.63-10.29L88.63-10.29 90.37-10.16Q94.1-10.16 96.71-12.77L96.71-12.77Q99.32-15.38 99.32-19.26L99.32-19.26Q99.32-24.35 94.85-26.81L94.85-26.81Q92.39-28.17 89.59-28.38L89.59-28.38Q88.4-28.48 87.38-28.48L87.38-28.48 85.94-28.48Q85.49-28.48 85.15-28.46L85.15-28.46 85.15 0 74.34 0 74.34-30.01Q79.3-30.01 82.38-30.01 85.45-30.01 86.38-29.99 87.32-29.97 88.05-29.94 88.78-29.9 89.42-29.86L89.42-29.86Q90.35-29.78 92.06-29.46 93.76-29.14 95.44-28.25 97.12-27.36 98.32-26.04L98.32-26.04Q100.93-23.24 100.93-19.38L100.93-19.38Q100.93-15.57 98.52-12.64L98.52-12.64Q96.03-9.65 91.9-8.78L91.9-8.78Q93.87-2.67 96.92-1.48L96.92-1.48Q97.86-1.12 98.79-1.12L98.79-1.12 100.47-1.53Q101.25-1.53 101.25-0.72L101.25-0.72Q101.25 0.4 98.62 0.4L98.62 0.4Q96.71 0.4 95.12-0.66L95.12-0.66Q92.64-2.14 90.9-6.43L90.9-6.43 90.29-7.93Q90.14-8.29 90.02-8.38 89.9-8.46 89.62-8.46 89.33-8.46 89.12-8.42L89.12-8.42 88.61-8.4Q87.76-8.4 87.45-8.72 87.15-9.03 87.15-9.37L87.15-9.37Q87.15-10.29 88.63-10.29ZM105.81 0L105.81-30.01 116.63-30.01 116.63 0 105.81 0Z" transform="translate(0.1899999976158142, 30.290000915527344)"></path></g></g></g></g> </g></g><defs v-gra="od"></defs></g></svg>